<svg width="68" height="88" viewBox="0 0 68 88" fill="none" xmlns="http://www.w3.org/2000/svg">
<path d="M0 3.21512V0H23.2082L68 75.6701V79H44.9078L0 3.21512ZM45.9522 28.8212V0H68V66.1395L45.9522 28.8212ZM0 12.7456L22.0478 50.064V79H0V12.7456Z" fill="#D63318"/>
<path d="M5.22433 81.1068H6.20874V86.8932H5.14029L1.8149 82.6688V86.8932H0.818481V81.1068H1.8149L5.22433 85.4259V81.1068Z" fill="black"/>
<path d="M14.2087 81.1068H15.2052V86.8932H14.2087V81.1068Z" fill="black"/>
<path d="M26.6266 84.7869L28.1632 86.8932H26.9027L25.4981 84.9408H24.2016V86.8932H23.2051V81.1068H25.3901C26.2784 81.1068 26.9147 81.2567 27.2989 81.5564C27.691 81.8483 27.8871 82.3256 27.8871 82.9883C27.8871 83.9428 27.4669 84.5424 26.6266 84.7869ZM25.4261 84.0651C25.9783 84.0651 26.3585 83.9823 26.5665 83.8166C26.7746 83.6509 26.8787 83.3709 26.8787 82.9764C26.8787 82.5978 26.7746 82.3414 26.5665 82.2073C26.3585 82.0653 25.9863 81.9943 25.4501 81.9943H24.2016V84.0651H25.4261Z" fill="black"/>
<path d="M40.5691 81.1068H41.5535V86.8932H40.485L37.1596 82.6688V86.8932H36.1632V81.1068H37.1596L40.5691 85.4259V81.1068Z" fill="black"/>
<path d="M53.6832 81.1068V82.0179H50.5499V83.5563H53.3591V84.4201H50.5499V85.9703H53.7792V86.8932H49.5535V81.1068H53.6832Z" fill="black"/>
<path d="M65.945 86.8932L64.4924 84.7159H64.4564L63.0037 86.8932H61.7792L63.7961 83.9231L61.9113 81.1068H63.1478L64.4564 83.0593H64.4924L65.8129 81.1068H67.0374L65.1647 83.9231L67.1815 86.8932H65.945Z" fill="black"/>
<path d="M37.8346 16.0756L45.606 0H68L49.5714 35.1366L37.8346 16.0756ZM17.6331 42.1744L30.2677 62.1206L22.394 79H0L17.6331 42.1744Z" fill="#A61800"/>
</svg>
